<?xml version="1.0" encoding="UTF-8"?>
<svg width="490px" height="138px" viewBox="0 0 490 138" version="1.1" xmlns="http://www.w3.org/2000/svg" xmlns:xlink="http://www.w3.org/1999/xlink">
    <title>编组 5</title>
    <defs>
        <path d="M96,105.499969 C96,120.687679 108.312335,133 123.5,133 C138.687665,133 151,120.687679 151,105.499969 C151,90.3123206 138.687665,78 123.5,78 C108.312335,78 96,90.3123206 96,105.499969 Z" id="path-1"></path>
    </defs>
    <g id="页面-1" stroke="none" stroke-width="1" fill="none" fill-rule="evenodd">
        <g id="Proof-of-Human-Web" transform="translate(-465.000000, -265.000000)">
            <g id="编组-5" transform="translate(465.000000, 265.000000)">
                <path d="M178.542603,63.9518853 L178.542603,51.6374268 L185.403515,51.6374268 C194.610039,51.6374268 201.998714,46.7116434 201.998714,37.2119183 L201.998714,37.0946377 C201.998714,28.7090779 196.076046,22.9036903 186.28312,22.9036903 L169.512,22.9036903 L169.512,63.9518853 L178.542603,63.9518853 Z M185.696717,43.6037086 L178.542603,43.6037086 L178.542603,31.054689 L185.520796,31.054689 C190.036097,31.054689 192.850831,33.2243793 192.850831,37.2705585 L192.850831,37.3878391 C192.850831,40.9062558 190.212018,43.6037086 185.696717,43.6037086 Z M213.400991,63.9518853 L213.400991,52.3411101 C213.400991,44.8351545 217.036688,41.2580975 222.959356,41.2580975 L223.428478,41.2580975 L223.428478,31.9342932 C218.150853,31.6997321 215.218839,34.5144655 213.400991,38.8538461 L213.400991,32.520696 L204.487668,32.520696 L204.487668,63.9518853 L213.400991,63.9518853 Z M240.284301,64.6555686 C250.077227,64.6555686 257.348622,57.3255338 257.348622,48.2949309 L257.348622,48.1776504 C257.348622,39.1470475 250.135867,31.9342932 240.401581,31.9342932 C230.608655,31.9342932 223.33726,39.264328 223.33726,48.2949309 L223.33726,48.4122115 C223.33726,57.4428144 230.550014,64.6555686 240.284301,64.6555686 Z M240.401581,56.9736921 C235.475798,56.9736921 232.133302,52.9275129 232.133302,48.2949309 L232.133302,48.1776504 C232.133302,43.5450684 235.182596,39.6161697 240.284301,39.6161697 C245.210084,39.6161697 248.55258,43.6623489 248.55258,48.2949309 L248.55258,48.4122115 C248.55258,53.0447935 245.503285,56.9736921 240.401581,56.9736921 Z M275.963652,64.6555686 C285.756579,64.6555686 293.027973,57.3255338 293.027973,48.2949309 L293.027973,48.1776504 C293.027973,39.1470475 285.815219,31.9342932 276.080933,31.9342932 C266.288006,31.9342932 259.016612,39.264328 259.016612,48.2949309 L259.016612,48.4122115 C259.016612,57.4428144 266.229366,64.6555686 275.963652,64.6555686 Z M276.080933,56.9736921 C271.155149,56.9736921 267.812654,52.9275129 267.812654,48.2949309 L267.812654,48.1776504 C267.812654,43.5450684 270.861948,39.6161697 275.963652,39.6161697 C280.889436,39.6161697 284.231932,43.6623489 284.231932,48.2949309 L284.231932,48.4122115 C284.231932,53.0447935 281.182637,56.9736921 276.080933,56.9736921 Z M306.65858,63.9518853 L306.65858,40.1439322 L313.754054,40.1439322 L313.754054,32.8725377 L306.5413,32.8725377 L306.5413,31.6410918 C306.5413,29.2954807 307.714105,28.2399557 309.766515,28.2399557 C311.291162,28.2399557 312.522608,28.533157 313.812694,29.0022793 L313.812694,21.6136042 C312.170767,21.0858417 310.294278,20.734 307.479544,20.734 C304.312969,20.734 301.908718,21.5549639 300.26679,23.1968917 C298.624862,24.8388195 297.745258,27.3603515 297.745258,30.8201279 L297.745258,32.8138974 L294.05092,32.8138974 L294.05092,40.1439322 L297.745258,40.1439322 L297.745258,63.9518853 L306.65858,63.9518853 Z M345.120087,64.6555686 C354.913014,64.6555686 362.184409,57.3255338 362.184409,48.2949309 L362.184409,48.1776504 C362.184409,39.1470475 354.971654,31.9342932 345.237368,31.9342932 C335.444442,31.9342932 328.173047,39.264328 328.173047,48.2949309 L328.173047,48.4122115 C328.173047,57.4428144 335.385801,64.6555686 345.120087,64.6555686 Z M345.237368,56.9736921 C340.311585,56.9736921 336.969089,52.9275129 336.969089,48.2949309 L336.969089,48.1776504 C336.969089,43.5450684 340.018383,39.6161697 345.120087,39.6161697 C350.045871,39.6161697 353.388367,43.6623489 353.388367,48.2949309 L353.388367,48.4122115 C353.388367,53.0447935 350.339072,56.9736921 345.237368,56.9736921 Z M375.815015,63.9518853 L375.815015,40.1439322 L382.910489,40.1439322 L382.910489,32.8725377 L375.697735,32.8725377 L375.697735,31.6410918 C375.697735,29.2954807 376.870541,28.2399557 378.92295,28.2399557 C380.447597,28.2399557 381.679043,28.533157 382.969129,29.0022793 L382.969129,21.6136042 C381.327202,21.0858417 379.450713,20.734 376.635979,20.734 C373.469404,20.734 371.065153,21.5549639 369.423225,23.1968917 C367.781297,24.8388195 366.901693,27.3603515 366.901693,30.8201279 L366.901693,32.8138974 L363.207356,32.8138974 L363.207356,40.1439322 L366.901693,40.1439322 L366.901693,63.9518853 L375.815015,63.9518853 Z M178.542603,116.076577 L178.542603,103.762119 L185.403515,103.762119 C194.610039,103.762119 201.998714,98.8363354 201.998714,89.3366103 L201.998714,89.2193297 C201.998714,80.8337699 196.076046,75.0283823 186.28312,75.0283823 L169.512,75.0283823 L169.512,116.076577 L178.542603,116.076577 Z M185.696717,95.7284007 L178.542603,95.7284007 L178.542603,83.1793811 L185.520796,83.1793811 C190.036097,83.1793811 192.850831,85.3490714 192.850831,89.3952506 L192.850831,89.5125311 C192.850831,93.0309479 190.212018,95.7284007 185.696717,95.7284007 Z M219.089098,116.780261 C224.777205,116.780261 228.999305,114.55193 231.931319,110.916233 L226.829614,106.400931 C224.366723,108.687902 222.197032,109.626147 219.206378,109.626147 C215.218839,109.626147 212.404106,107.515097 211.524502,103.468917 L233.397326,103.468917 C233.455966,102.647954 233.514606,101.82699 233.514606,101.123306 C233.514606,92.209984 228.706103,84.0589852 218.209494,84.0589852 C209.06161,84.0589852 202.66982,91.4476603 202.66982,100.419623 L202.66982,100.536904 C202.66982,110.153909 209.648013,116.780261 219.089098,116.780261 Z M224.835845,97.898091 L211.407221,97.898091 C212.110905,93.8519118 214.515156,91.2130992 218.209494,91.2130992 C221.962471,91.2130992 224.308083,93.910552 224.835845,97.898091 Z M245.796487,116.076577 L245.796487,104.465802 C245.796487,96.9598465 249.432184,93.3827895 255.354852,93.3827895 L255.823974,93.3827895 L255.823974,84.0589852 C250.546349,83.8244241 247.614335,86.6391575 245.796487,90.9785381 L245.796487,84.645388 L236.883164,84.645388 L236.883164,116.076577 L245.796487,116.076577 Z M269.16138,116.66298 C275.963652,116.66298 281.182637,113.496405 281.182637,106.518212 L281.182637,106.400931 C281.182637,100.654184 276.080933,98.543134 271.682912,97.0771271 C268.281776,95.9043215 265.291122,95.0833576 265.291122,93.3241492 L265.291122,93.2068687 C265.291122,91.9754228 266.405287,91.0371784 268.574977,91.0371784 C270.861948,91.0371784 273.969883,92.1513437 277.077818,93.9691923 L280.478954,87.8119631 C277.077818,85.5249922 272.738437,84.1762658 268.750898,84.1762658 C262.417748,84.1762658 257.257403,87.7533228 257.257403,94.1451131 L257.257403,94.2623937 C257.257403,100.360983 262.241827,102.413392 266.639848,103.703479 C270.099624,104.759004 273.148919,105.404047 273.148919,107.339176 L273.148919,107.456456 C273.148919,108.863823 271.976113,109.802068 269.395941,109.802068 C266.463927,109.802068 262.88687,108.511981 259.485734,106.04909 L255.674116,111.913118 C259.837576,115.196973 264.763359,116.66298 269.16138,116.66298 Z M299.739027,116.780261 C309.531954,116.780261 316.803349,109.450226 316.803349,100.419623 L316.803349,100.302342 C316.803349,91.2717395 309.590594,84.0589852 299.856308,84.0589852 C290.063382,84.0589852 282.791987,91.3890201 282.791987,100.419623 L282.791987,100.536904 C282.791987,109.567506 290.004741,116.780261 299.739027,116.780261 Z M299.856308,109.098384 C294.930525,109.098384 291.588029,105.052205 291.588029,100.419623 L291.588029,100.302342 C291.588029,95.6697604 294.637323,91.7408617 299.739027,91.7408617 C304.664811,91.7408617 308.007307,95.7870409 308.007307,100.419623 L308.007307,100.536904 C308.007307,105.169486 304.958012,109.098384 299.856308,109.098384 Z M328.909308,116.076577 L328.909308,98.543134 C328.909308,94.321034 331.078999,92.1513437 334.480135,92.1513437 C337.881271,92.1513437 339.87504,94.321034 339.87504,98.543134 L339.87504,116.076577 L348.788363,116.076577 L348.788363,95.7284007 C348.788363,88.5156464 344.859464,84.0589852 338.115832,84.0589852 C333.600531,84.0589852 330.961718,86.4632367 328.909308,89.1020492 L328.909308,84.645388 L319.995986,84.645388 L319.995986,116.076577 L328.909308,116.076577 Z M362.184409,116.076577 L362.184409,98.543134 C362.184409,94.321034 364.354099,92.1513437 367.755235,92.1513437 C371.156371,92.1513437 373.150141,94.321034 373.150141,98.543134 L373.150141,116.076577 L382.063463,116.076577 L382.063463,95.7284007 C382.063463,88.5156464 378.134564,84.0589852 371.390932,84.0589852 C366.875631,84.0589852 364.236818,86.4632367 362.184409,89.1020492 L362.184409,73.269174 L353.271086,73.269174 L353.271086,116.076577 L362.184409,116.076577 Z M401.96858,116.780261 C411.761506,116.780261 419.032901,109.450226 419.032901,100.419623 L419.032901,100.302342 C419.032901,91.2717395 411.820147,84.0589852 402.08586,84.0589852 C392.292934,84.0589852 385.021539,91.3890201 385.021539,100.419623 L385.021539,100.536904 C385.021539,109.567506 392.234293,116.780261 401.96858,116.780261 Z M402.08586,109.098384 C397.160077,109.098384 393.817581,105.052205 393.817581,100.419623 L393.817581,100.302342 C393.817581,95.6697604 396.866875,91.7408617 401.96858,91.7408617 C406.894363,91.7408617 410.236859,95.7870409 410.236859,100.419623 L410.236859,100.536904 C410.236859,105.169486 407.187565,109.098384 402.08586,109.098384 Z M437.647931,116.780261 C447.440858,116.780261 454.712252,109.450226 454.712252,100.419623 L454.712252,100.302342 C454.712252,91.2717395 447.499498,84.0589852 437.765212,84.0589852 C427.972285,84.0589852 420.700891,91.3890201 420.700891,100.419623 L420.700891,100.536904 C420.700891,109.567506 427.913645,116.780261 437.647931,116.780261 Z M437.765212,109.098384 C432.839429,109.098384 429.496933,105.052205 429.496933,100.419623 L429.496933,100.302342 C429.496933,95.6697604 432.546227,91.7408617 437.647931,91.7408617 C442.573715,91.7408617 445.916211,95.7870409 445.916211,100.419623 L445.916211,100.536904 C445.916211,105.169486 442.866916,109.098384 437.765212,109.098384 Z M470.805751,116.66298 C475.438333,116.66298 478.428987,114.49329 480.598678,111.561276 L480.598678,116.076577 L489.512,116.076577 L489.512,73.269174 L480.598678,73.269174 L480.598678,88.7502075 C478.487628,86.2286755 475.555614,84.0589852 470.805751,84.0589852 C463.358436,84.0589852 456.497523,89.8057325 456.497523,100.302342 L456.497523,100.419623 C456.497523,110.916233 463.475716,116.66298 470.805751,116.66298 Z M473.092722,109.098384 C468.929262,109.098384 465.410846,105.638608 465.410846,100.419623 L465.410846,100.302342 C465.410846,95.0247173 468.929262,91.6235812 473.092722,91.6235812 C477.256182,91.6235812 480.715958,95.0833576 480.715958,100.302342 L480.715958,100.419623 C480.715958,105.638608 477.256182,109.098384 473.092722,109.098384 Z" id="ProofofPersonhood" fill="#FFFFFF" fill-rule="nonzero"></path>
                <g id="编组-2备份-2">
                    <g id="编组" transform="translate(9.000000, 0.000000)" fill="#FFFFFF">
                        <path d="M133,66.9988762 C133,103.944009 103.168308,134 66.5011155,134 C29.8316923,134 0,103.944009 0,66.9988762 C0,30.0559907 29.8316923,0 66.5011155,0 C103.168308,0 133,30.0559907 133,66.9988762" id="Fill-3"></path>
                    </g>
                    <g id="编组" transform="translate(37.000000, 30.000000)"></g>
                    <path d="M136.5,94 C130.158817,94 125,88.6612664 125,82.0994514 L125,55.8999151 C125,49.3378889 130.158817,44 136.5,44 C142.841183,44 148,49.3378889 148,55.8999151 L148,82.0994514 C148,88.6612664 142.841183,94 136.5,94" id="路径备份" fill="#9C9CA4"></path>
                    <path d="M4,82.0994514 L4,55.8999151 C4,49.3378889 9.15881748,44 15.5,44 C21.8411825,44 27,49.3378889 27,55.8999151 L27,82.0994514 C27,88.6612664 21.8411825,94 15.5,94 C9.15881748,94 4,88.6612664 4,82.0994514 Z" id="路径备份-2" fill="#9C9CA4" transform="translate(15.500000, 69.000000) rotate(-180.000000) translate(-15.500000, -69.000000) "></path>
                    <path d="M139.5,94 C133.158817,94 128,88.6612664 128,82.0994514 L128,55.8999151 C128,49.3378889 133.158817,44 139.5,44 C145.841183,44 151,49.3378889 151,55.8999151 L151,82.0994514 C151,88.6612664 145.841183,94 139.5,94" id="路径" fill="#FFFFFF"></path>
                    <path d="M11.5,94 C5.15881748,94 -3.63797881e-12,88.6612664 -3.63797881e-12,82.0994514 L-3.63797881e-12,55.8999151 C-3.63797881e-12,49.3378889 5.15881748,44 11.5,44 C17.8411825,44 23,49.3378889 23,55.8999151 L23,82.0994514 C23,88.6612664 17.8411825,94 11.5,94" id="路径备份-3" fill="#FFFFFF" transform="translate(11.500000, 69.000000) rotate(-180.000000) translate(-11.500000, -69.000000) "></path>
                    <path d="M119,68.50011 C119,92.5243383 99.5242891,112 75.5,112 C51.4754909,112 32,92.5243383 32,68.50011 C32,44.4756617 51.4754909,25 75.5,25 C99.5242891,25 119,44.4756617 119,68.50011" id="Fill-7" fill="#9C9CA4"></path>
                    <path d="M114,68.5000973 C114,89.7629201 96.7628766,107 75.5,107 C54.2369287,107 37,89.7629201 37,68.5000973 C37,47.2370799 54.2369287,30 75.5,30 C96.7628766,30 114,47.2370799 114,68.5000973" id="Fill-7" fill="#FFE7CC"></path>
                    <path d="M55,69.0401693 L55,63.9596348 C55,61.2204805 57.0146574,59 59.4999111,59 C61.9851648,59 64,61.2204805 64,63.9596348 L64,69.0401693 C64,71.7795195 61.9851648,74 59.4999111,74 C57.0146574,74 55,71.7795195 55,69.0401693 Z" id="Fill-19" fill="#23232F"></path>
                    <path d="M87,69.0401693 L87,63.9596348 C87,61.2204805 89.0148352,59 91.5000889,59 C93.9853426,59 96,61.2204805 96,63.9596348 L96,69.0401693 C96,71.7795195 93.9853426,74 91.5000889,74 C89.0148352,74 87,71.7795195 87,69.0401693 Z" id="Fill-21" fill="#23232F"></path>
                    <path d="M92,105.999963 C92,123.672936 106.32708,138 124,138 C141.67292,138 156,123.672936 156,105.999963 C156,88.3270639 141.67292,74 124,74 C106.32708,74 92,88.3270639 92,105.999963 Z" id="路径" fill="#0B0B0F"></path>
                    <mask id="mask-2" fill="white">
                        <use xlink:href="#path-1"></use>
                    </mask>
                    <use id="路径" fill="#B5FF26" xlink:href="#path-1"></use>
                    <path d="M143.509304,85 L149,92.5890184 L121.793142,126 L121.711,125.403 L105,112.752113 L105,101.338111 L120.165335,113.401982 L120.187,113.565 L143.509304,85 Z" id="形状结合" fill="#0B0B0F" mask="url(#mask-2)"></path>
                </g>
            </g>
        </g>
    </g>
</svg>