<?xml version="1.0" encoding="UTF-8"?>
<svg width="222px" height="19px" viewBox="0 0 222 19" version="1.1" xmlns="http://www.w3.org/2000/svg" xmlns:xlink="http://www.w3.org/1999/xlink">
    <title>编组 2</title>
    <defs>
        <path d="M70.988,0 C73.4083885,0 75.6173868,0.90518456 77.2949324,2.39549175 L69.665,11.753 L69.6580004,11.6982376 L64.488,7.57886704 L64.488,11.4763314 L70.184,15.796 L70.2129348,16 L79.2757352,4.85293369 C80.0477209,6.22675113 80.488,7.81196044 80.488,9.49998912 C80.488,14.7466529 76.234648,19 70.988,19 C65.741352,19 61.488,14.7466529 61.488,9.49998912 C61.488,4.2533471 65.741352,0 70.988,0 Z" id="path-1"></path>
    </defs>
    <g id="页面-1" stroke="none" stroke-width="1" fill="none" fill-rule="evenodd">
        <g id="Proof-of-Human-Web" transform="translate(-170.000000, -89.000000)">
            <g id="编组-2" transform="translate(170.512000, 89.000000)">
                <path d="M3.41101695,17.0581525 L3.41101695,12.4067658 L6.00250385,12.4067658 C9.47996918,12.4067658 12.2708012,10.5462111 12.2708012,6.95799846 L12.2708012,6.91369954 C12.2708012,3.74632666 10.0337057,1.55353005 6.33474576,1.55353005 L0,1.55353005 L0,17.0581525 L3.41101695,17.0581525 Z M6.11325116,9.37228968 L3.41101695,9.37228968 L3.41101695,4.63230508 L6.04680277,4.63230508 C7.75231125,4.63230508 8.81548536,5.45183513 8.81548536,6.98014792 L8.81548536,7.02444684 C8.81548536,8.35341448 7.81875963,9.37228968 6.11325116,9.37228968 Z M16.8081664,17.0581525 L16.8081664,12.6725593 C16.8081664,9.83742835 18.181433,8.48631125 20.4185285,8.48631125 L20.5957242,8.48631125 L20.5957242,4.964547 C18.6022727,4.87594915 17.4947997,5.93912327 16.8081664,7.57818336 L16.8081664,5.1860416 L13.4414484,5.1860416 L13.4414484,17.0581525 L16.8081664,17.0581525 Z M28.1929892,17.3239461 C31.8919492,17.3239461 34.6384823,14.5552635 34.6384823,11.1442465 L34.6384823,11.0999476 C34.6384823,7.68893066 31.9140986,4.964547 28.2372881,4.964547 C24.5383282,4.964547 21.7917951,7.73322958 21.7917951,11.1442465 L21.7917951,11.1885455 C21.7917951,14.5995624 24.5161787,17.3239461 28.1929892,17.3239461 Z M28.2372881,14.4223667 C26.3767334,14.4223667 25.1142142,12.8940539 25.1142142,11.1442465 L25.1142142,11.0999476 C25.1142142,9.35014022 26.2659861,7.86612635 28.1929892,7.86612635 C30.0535439,7.86612635 31.3160632,9.39443914 31.3160632,11.1442465 L31.3160632,11.1885455 C31.3160632,12.9383529 30.1642912,14.4223667 28.2372881,14.4223667 Z M41.9002311,17.3239461 C45.5991911,17.3239461 48.3457242,14.5552635 48.3457242,11.1442465 L48.3457242,11.0999476 C48.3457242,7.68893066 45.6213405,4.964547 41.94453,4.964547 C38.2455701,4.964547 35.499037,7.73322958 35.499037,11.1442465 L35.499037,11.1885455 C35.499037,14.5995624 38.2234206,17.3239461 41.9002311,17.3239461 Z M41.94453,14.4223667 C40.0839753,14.4223667 38.8214561,12.8940539 38.8214561,11.1442465 L38.8214561,11.0999476 C38.8214561,9.35014022 39.973228,7.86612635 41.9002311,7.86612635 C43.7607858,7.86612635 45.0233051,9.39443914 45.0233051,11.1442465 L45.0233051,11.1885455 C45.0233051,12.9383529 43.8715331,14.4223667 41.94453,14.4223667 Z M53.7247689,17.0581525 L53.7247689,8.06547149 L56.4048536,8.06547149 L56.4048536,5.31893837 L53.68047,5.31893837 L53.68047,4.85379969 C53.68047,3.96782126 54.1234592,3.56913097 54.8986903,3.56913097 C55.4745763,3.56913097 55.9397149,3.67987827 56.4270031,3.85707396 L56.4270031,1.06624191 C55.8068182,0.866896764 55.0980354,0.734 54.0348613,0.734 C52.8387904,0.734 51.9306626,1.04409245 51.3104777,1.66427735 C50.6902928,2.28446225 50.3580508,3.23688906 50.3580508,4.54370724 L50.3580508,5.29678891 L48.9626348,5.29678891 L48.9626348,8.06547149 L50.3580508,8.06547149 L50.3580508,17.0581525 L53.7247689,17.0581525 Z M85.537943,17.0581525 L85.537943,8.06547149 L88.2180277,8.06547149 L88.2180277,5.31893837 L85.4936441,5.31893837 L85.4936441,4.85379969 C85.4936441,3.96782126 85.9366333,3.56913097 86.7118644,3.56913097 C87.2877504,3.56913097 87.7528891,3.67987827 88.2401772,3.85707396 L88.2401772,1.06624191 C87.6199923,0.866896764 86.9112096,0.734 85.8480354,0.734 C84.6519646,0.734 83.7438367,1.04409245 83.1236518,1.66427735 C82.5034669,2.28446225 82.171225,3.23688906 82.171225,4.54370724 L82.171225,5.29678891 L80.7758089,5.29678891 L80.7758089,8.06547149 L82.171225,8.06547149 L82.171225,17.0581525 L85.537943,17.0581525 Z M100.46668,17.0581525 L100.46668,12.4067658 L103.058166,12.4067658 C106.535632,12.4067658 109.326464,10.5462111 109.326464,6.95799846 L109.326464,6.91369954 C109.326464,3.74632666 107.089368,1.55353005 103.390408,1.55353005 L97.0556626,1.55353005 L97.0556626,17.0581525 L100.46668,17.0581525 Z M103.168914,9.37228968 L100.46668,9.37228968 L100.46668,4.63230508 L103.102465,4.63230508 C104.807974,4.63230508 105.871148,5.45183513 105.871148,6.98014792 L105.871148,7.02444684 C105.871148,8.35341448 104.874422,9.37228968 103.168914,9.37228968 Z M116.012327,17.3239461 C118.160824,17.3239461 119.755586,16.4822666 120.863059,15.109 L118.936055,13.4034915 C118.005778,14.2673205 117.186248,14.6217119 116.056626,14.6217119 C114.550462,14.6217119 113.487288,13.8243313 113.155046,12.2960185 L121.416795,12.2960185 C121.438945,11.985926 121.461094,11.6758336 121.461094,11.4100401 C121.461094,8.04332203 119.644838,4.964547 115.680085,4.964547 C112.224769,4.964547 109.810478,7.75537904 109.810478,11.1442465 L109.810478,11.1885455 C109.810478,14.821057 112.446263,17.3239461 116.012327,17.3239461 Z M118.182974,10.1918197 L113.110747,10.1918197 C113.376541,8.66350693 114.284669,7.6667812 115.680085,7.6667812 C117.09765,7.6667812 117.983629,8.68565639 118.182974,10.1918197 Z M126.330701,17.0581525 L126.330701,12.6725593 C126.330701,9.83742835 127.703968,8.48631125 129.941063,8.48631125 L130.118259,8.48631125 L130.118259,4.964547 C128.124807,4.87594915 127.017334,5.93912327 126.330701,7.57818336 L126.330701,5.1860416 L122.963983,5.1860416 L122.963983,17.0581525 L126.330701,17.0581525 Z M136.386556,17.2796471 C138.955894,17.2796471 140.927196,16.0835763 140.927196,13.4477904 L140.927196,13.4034915 C140.927196,11.2328444 139.000193,10.4354638 137.338983,9.88172727 C136.054314,9.43873806 134.924692,9.12864561 134.924692,8.46416179 L134.924692,8.41986287 C134.924692,7.95472419 135.345532,7.60033282 136.165062,7.60033282 C137.028891,7.60033282 138.202812,8.02117257 139.376733,8.70780586 L140.661402,6.38211248 C139.376733,5.51828351 137.737673,5.00884592 136.23151,5.00884592 C133.839368,5.00884592 131.890216,6.35996302 131.890216,8.77425424 L131.890216,8.81855316 C131.890216,11.1220971 133.77292,11.8973282 135.434129,12.3846163 C136.740948,12.7833066 137.89272,13.0269507 137.89272,13.7578829 L137.89272,13.8021818 C137.89272,14.3337689 137.44973,14.6881602 136.475154,14.6881602 C135.367681,14.6881602 134.016564,14.2008721 132.731895,13.2705948 L131.29218,15.4855408 C132.864792,16.7259106 134.725347,17.2796471 136.386556,17.2796471 Z M148.166795,17.3239461 C151.865755,17.3239461 154.612288,14.5552635 154.612288,11.1442465 L154.612288,11.0999476 C154.612288,7.68893066 151.887904,4.964547 148.211094,4.964547 C144.512134,4.964547 141.765601,7.73322958 141.765601,11.1442465 L141.765601,11.1885455 C141.765601,14.5995624 144.489985,17.3239461 148.166795,17.3239461 Z M148.211094,14.4223667 C146.350539,14.4223667 145.08802,12.8940539 145.08802,11.1442465 L145.08802,11.0999476 C145.08802,9.35014022 146.239792,7.86612635 148.166795,7.86612635 C150.02735,7.86612635 151.289869,9.39443914 151.289869,11.1442465 L151.289869,11.1885455 C151.289869,12.9383529 150.138097,14.4223667 148.211094,14.4223667 Z M159.415447,17.0581525 L159.415447,10.4354638 C159.415447,8.84070262 160.234977,8.02117257 161.519646,8.02117257 C162.804314,8.02117257 163.557396,8.84070262 163.557396,10.4354638 L163.557396,17.0581525 L166.924114,17.0581525 L166.924114,9.37228968 C166.924114,6.64790601 165.4401,4.964547 162.892912,4.964547 C161.187404,4.964547 160.190678,5.87267488 159.415447,6.86940062 L159.415447,5.1860416 L156.048729,5.1860416 L156.048729,17.0581525 L159.415447,17.0581525 Z M172.214561,17.0581525 L172.214561,10.4354638 C172.214561,8.84070262 173.034091,8.02117257 174.31876,8.02117257 C175.603428,8.02117257 176.35651,8.84070262 176.35651,10.4354638 L176.35651,17.0581525 L179.723228,17.0581525 L179.723228,9.37228968 C179.723228,6.64790601 178.239214,4.964547 175.692026,4.964547 C173.986518,4.964547 172.989792,5.87267488 172.214561,6.86940062 L172.214561,0.889046225 L168.847843,0.889046225 L168.847843,17.0581525 L172.214561,17.0581525 Z M187.472265,17.3239461 C191.171225,17.3239461 193.917758,14.5552635 193.917758,11.1442465 L193.917758,11.0999476 C193.917758,7.68893066 191.193374,4.964547 187.516564,4.964547 C183.817604,4.964547 181.071071,7.73322958 181.071071,11.1442465 L181.071071,11.1885455 C181.071071,14.5995624 183.795455,17.3239461 187.472265,17.3239461 Z M187.516564,14.4223667 C185.656009,14.4223667 184.39349,12.8940539 184.39349,11.1442465 L184.39349,11.0999476 C184.39349,9.35014022 185.545262,7.86612635 187.472265,7.86612635 C189.33282,7.86612635 190.595339,9.39443914 190.595339,11.1442465 L190.595339,11.1885455 C190.595339,12.9383529 189.443567,14.4223667 187.516564,14.4223667 Z M201.179507,17.3239461 C204.878467,17.3239461 207.625,14.5552635 207.625,11.1442465 L207.625,11.0999476 C207.625,7.68893066 204.900616,4.964547 201.223806,4.964547 C197.524846,4.964547 194.778313,7.73322958 194.778313,11.1442465 L194.778313,11.1885455 C194.778313,14.5995624 197.502696,17.3239461 201.179507,17.3239461 Z M201.223806,14.4223667 C199.363251,14.4223667 198.100732,12.8940539 198.100732,11.1442465 L198.100732,11.0999476 C198.100732,9.35014022 199.252504,7.86612635 201.179507,7.86612635 C203.040062,7.86612635 204.302581,9.39443914 204.302581,11.1442465 L204.302581,11.1885455 C204.302581,12.9383529 203.150809,14.4223667 201.223806,14.4223667 Z M213.934322,17.2796471 C215.684129,17.2796471 216.813752,16.4601171 217.633282,15.3526441 L217.633282,17.0581525 L221,17.0581525 L221,0.889046225 L217.633282,0.889046225 L217.633282,6.73650385 C216.835901,5.78407704 215.728428,4.964547 213.934322,4.964547 C211.121341,4.964547 208.529854,7.13519414 208.529854,11.0999476 L208.529854,11.1442465 C208.529854,15.109 211.165639,17.2796471 213.934322,17.2796471 Z M214.798151,14.4223667 C213.225539,14.4223667 211.896572,13.1155485 211.896572,11.1442465 L211.896572,11.0999476 C211.896572,9.10649615 213.225539,7.82182743 214.798151,7.82182743 C216.370763,7.82182743 217.677581,9.12864561 217.677581,11.0999476 L217.677581,11.1442465 C217.677581,13.1155485 216.370763,14.4223667 214.798151,14.4223667 Z" id="ProofofPersonhood" fill="#FFFFFF" fill-rule="nonzero"></path>
                <mask id="mask-2" fill="white">
                    <use xlink:href="#path-1"></use>
                </mask>
                <use id="形状结合备份" fill="#B5FF26" xlink:href="#path-1"></use>
            </g>
        </g>
    </g>
</svg>