<?xml version="1.0" encoding="UTF-8"?>
<svg width="182px" height="30px" viewBox="0 0 182 30" version="1.1" xmlns="http://www.w3.org/2000/svg" xmlns:xlink="http://www.w3.org/1999/xlink">
    <title>编组 2</title>
    <defs>
        <path d="M76.5,8 C78.9203885,8 81.1293868,8.90518456 82.8069324,10.3954918 L75.177,19.753 L75.1700004,19.6982376 L70,15.578867 L70,19.4763314 L75.696,23.796 L75.7249348,24 L84.7877352,12.8529337 C85.5597209,14.2267511 86,15.8119604 86,17.4999891 C86,22.7466529 81.746648,27 76.5,27 C71.253352,27 67,22.7466529 67,17.4999891 C67,12.2533471 71.253352,8 76.5,8 Z" id="path-1"></path>
    </defs>
    <g id="页面-1" stroke="none" stroke-width="1" fill="none" fill-rule="evenodd">
        <g id="Proof-of-Human-Web" transform="translate(-171.000000, -45.000000)">
            <g id="编组-2" transform="translate(171.000000, 45.000000)">
                <path d="M5.712,26 L5.712,20.96 L8.52,20.96 C12.288,20.96 15.312,18.944 15.312,15.056 L15.312,15.008 C15.312,11.576 12.888,9.2 8.88,9.2 L2.016,9.2 L2.016,26 L5.712,26 Z M8.64,17.672 L5.712,17.672 L5.712,12.536 L8.568,12.536 C10.416,12.536 11.568,13.424 11.568,15.08 L11.568,15.128 C11.568,16.568 10.488,17.672 8.64,17.672 Z M20.312,26 L20.312,21.248 C20.312,18.176 21.8,16.712 24.224,16.712 L24.416,16.712 L24.416,12.896 C22.256,12.8 21.056,13.952 20.312,15.728 L20.312,13.136 L16.664,13.136 L16.664,26 L20.312,26 Z M31.648,26.288 C35.656,26.288 38.632,23.288 38.632,19.592 L38.632,19.544 C38.632,15.848 35.68,12.896 31.696,12.896 C27.688,12.896 24.712,15.896 24.712,19.592 L24.712,19.64 C24.712,23.336 27.664,26.288 31.648,26.288 Z M31.696,23.144 C29.68,23.144 28.312,21.488 28.312,19.592 L28.312,19.544 C28.312,17.648 29.56,16.04 31.648,16.04 C33.664,16.04 35.032,17.696 35.032,19.592 L35.032,19.64 C35.032,21.536 33.784,23.144 31.696,23.144 Z M46.584,26.288 C50.592,26.288 53.568,23.288 53.568,19.592 L53.568,19.544 C53.568,15.848 50.616,12.896 46.632,12.896 C42.624,12.896 39.648,15.896 39.648,19.592 L39.648,19.64 C39.648,23.336 42.6,26.288 46.584,26.288 Z M46.632,23.144 C44.616,23.144 43.248,21.488 43.248,19.592 L43.248,19.544 C43.248,17.648 44.496,16.04 46.584,16.04 C48.6,16.04 49.968,17.696 49.968,19.592 L49.968,19.64 C49.968,21.536 48.72,23.144 46.632,23.144 Z M59.48,26 L59.48,16.256 L62.384,16.256 L62.384,13.28 L59.432,13.28 L59.432,12.776 C59.432,11.816 59.912,11.384 60.752,11.384 C61.376,11.384 61.88,11.504 62.408,11.696 L62.408,8.672 C61.736,8.456 60.968,8.312 59.816,8.312 C58.52,8.312 57.536,8.648 56.864,9.32 C56.192,9.992 55.832,11.024 55.832,12.44 L55.832,13.256 L54.32,13.256 L54.32,16.256 L55.832,16.256 L55.832,26 L59.48,26 Z M92.448,26 L92.448,16.256 L95.352,16.256 L95.352,13.28 L92.4,13.28 L92.4,12.776 C92.4,11.816 92.88,11.384 93.72,11.384 C94.344,11.384 94.848,11.504 95.376,11.696 L95.376,8.672 C94.704,8.456 93.936,8.312 92.784,8.312 C91.488,8.312 90.504,8.648 89.832,9.32 C89.16,9.992 88.8,11.024 88.8,12.44 L88.8,13.256 L87.288,13.256 L87.288,16.256 L88.8,16.256 L88.8,26 L92.448,26 Z M106.624,26 L106.624,19.256 L113.44,19.256 L113.44,26 L117.136,26 L117.136,9.2 L113.44,9.2 L113.44,15.848 L106.624,15.848 L106.624,9.2 L102.928,9.2 L102.928,26 L106.624,26 Z M124.056,26.24 C125.904,26.24 126.984,25.256 127.824,24.176 L127.824,26 L131.472,26 L131.472,13.136 L127.824,13.136 L127.824,20.312 C127.824,22.04 126.936,22.928 125.544,22.928 C124.152,22.928 123.336,22.04 123.336,20.312 L123.336,13.136 L119.688,13.136 L119.688,21.464 C119.688,24.416 121.296,26.24 124.056,26.24 Z M137.384,26 L137.384,18.824 C137.384,17.096 138.224,16.208 139.592,16.208 C140.96,16.208 141.728,17.096 141.728,18.824 L141.728,26 L145.376,26 L145.376,18.824 C145.376,17.096 146.216,16.208 147.584,16.208 C148.952,16.208 149.72,17.096 149.72,18.824 L149.72,26 L153.368,26 L153.368,17.624 C153.368,14.528 151.736,12.896 149.024,12.896 C147.272,12.896 145.928,13.616 144.8,14.936 C144.128,13.64 142.856,12.896 141.176,12.896 C139.328,12.896 138.224,13.88 137.384,14.96 L137.384,13.136 L133.736,13.136 L133.736,26 L137.384,26 Z M159.184,26.24 C160.96,26.24 162.184,25.592 163.072,24.608 L163.072,26 L166.6,26 L166.6,18.536 C166.6,16.808 166.168,15.392 165.208,14.432 C164.296,13.52 162.856,12.992 160.864,12.992 C158.68,12.992 157.288,13.4 155.872,14.024 L156.784,16.808 C157.96,16.376 158.944,16.112 160.336,16.112 C162.16,16.112 163.096,16.952 163.096,18.464 L163.096,18.68 C162.184,18.368 161.248,18.152 159.952,18.152 C156.904,18.152 154.768,19.448 154.768,22.256 L154.768,22.304 C154.768,24.848 156.76,26.24 159.184,26.24 Z M160.288,23.72 C159.112,23.72 158.296,23.144 158.296,22.16 L158.296,22.112 C158.296,20.96 159.256,20.336 160.816,20.336 C161.704,20.336 162.52,20.528 163.144,20.816 L163.144,21.464 C163.144,22.784 161.992,23.72 160.288,23.72 Z M172.392,26 L172.392,18.824 C172.392,17.096 173.28,16.208 174.672,16.208 C176.064,16.208 176.88,17.096 176.88,18.824 L176.88,26 L180.528,26 L180.528,17.672 C180.528,14.72 178.92,12.896 176.16,12.896 C174.312,12.896 173.232,13.88 172.392,14.96 L172.392,13.136 L168.744,13.136 L168.744,26 L172.392,26 Z" id="ProoffHuman" fill="#FFFFFF" fill-rule="nonzero"></path>
                <mask id="mask-2" fill="white">
                    <use xlink:href="#path-1"></use>
                </mask>
                <use id="形状结合备份" fill="#B5FF26" xlink:href="#path-1"></use>
            </g>
        </g>
    </g>
</svg>